External Loads File
version=1
nRows=62
nColumns=13
Range=5.000000e-03-10 seconds
endheader
time 	forceRightX 	forceRightY 	forceRightZ 	pointRightX 	pointRightY 	pointRightZ 	forceLeftX 	forceLeftY 	forceLeftZ 	pointLeftX 	pointLeftY 	pointLeftZ 		
2.505000 -102.196941 107.135391 -0.000000 0.210920 0.502605 -0.162525 110.726109 326.034034 -0.000000 0.231203 0.150167 -0.400653
2.510000 -98.699304 122.487958 -0.000000 0.216095 0.503638 -0.162277 119.784496 277.795581 -0.000000 0.224534 0.149818 -0.400530
2.515000 -94.932287 138.371957 -0.000000 0.221206 0.504396 -0.162180 127.514674 229.099267 -0.000000 0.217895 0.149795 -0.400394
2.520000 -91.010233 155.257332 -0.000000 0.226307 0.504679 -0.162141 133.547783 181.264108 -0.000000 0.211254 0.149960 -0.400418
2.525000 -87.227448 173.589903 -0.000000 0.231236 0.504572 -0.161942 137.327482 135.725127 -0.000000 0.204760 0.150418 -0.400399
2.530000 -83.779637 193.932052 -0.000000 0.235980 0.504121 -0.161648 138.596737 93.535006 -0.000000 0.198418 0.151268 -0.400234
2.535000 -81.112173 216.706577 -0.000000 0.240508 0.503285 -0.161380 137.168541 55.485632 -0.000000 0.192613 0.152540 -0.399785
2.540000 -79.344963 242.363161 -0.000000 0.244830 0.502045 -0.161105 133.286451 21.690389 -0.000000 0.187059 0.154007 -0.399390
2.545000 -78.710757 271.108614 -0.000000 0.249118 0.500504 -0.160686 127.384571 -7.979323 -0.000000 0.181811 0.155735 -0.399059
2.550000 -79.392142 302.921953 -0.000000 0.253265 0.498660 -0.160399 120.107278 -33.908851 -0.000000 0.176584 0.157724 -0.398720
2.555000 -81.290746 337.552204 -0.000000 0.257439 0.496052 -0.160377 112.099833 -56.725112 -0.000000 0.171308 0.160126 -0.398477
2.560000 -84.907645 374.268213 -0.000000 0.261521 0.493421 -0.160404 103.990673 -76.837538 -0.000000 0.166039 0.162629 -0.398377
2.565000 -90.014063 412.193701 -0.000000 0.265634 0.490366 -0.160283 96.123003 -94.733676 -0.000000 0.160754 0.165300 -0.398493
2.570000 -96.547930 450.142937 -0.000000 0.269825 0.486778 -0.159826 88.685947 -110.582063 -0.000000 0.155591 0.168114 -0.398684
2.575000 -104.272313 486.815426 -0.000000 0.274053 0.482788 -0.159660 81.705925 -124.414987 -0.000000 0.150538 0.171225 -0.398827
2.580000 -113.113301 520.844083 -0.000000 0.278288 0.478809 -0.159820 75.191087 -136.134570 -0.000000 0.145492 0.174510 -0.399023
2.585000 -122.509008 551.067915 -0.000000 0.282683 0.474588 -0.159959 69.036439 -145.649521 -0.000000 0.140563 0.178087 -0.399211
2.590000 -131.759739 576.597583 -0.000000 0.287218 0.469849 -0.159895 63.158420 -152.852081 -0.000000 0.135692 0.181947 -0.399356
2.595000 -140.730246 596.748347 -0.000000 0.291785 0.464854 -0.159839 57.688035 -157.604332 -0.000000 0.130886 0.186069 -0.399473
2.600000 -148.625094 611.368099 -0.000000 0.296377 0.459306 -0.159852 52.640349 -159.873569 -0.000000 0.126140 0.190465 -0.399501
2.605000 -156.138556 620.358766 -0.000000 0.300828 0.453936 -0.159726 48.463948 -159.527072 -0.000000 0.121499 0.195121 -0.399464
2.610000 -162.806868 624.306601 -0.000000 0.305150 0.448416 -0.159423 45.291273 -156.627608 -0.000000 0.117014 0.200008 -0.399424
2.615000 -167.633495 624.306544 -0.000000 0.309734 0.442743 -0.159363 43.079427 -151.377032 -0.000000 0.112610 0.205181 -0.399323
2.620000 -171.113516 621.317772 -0.000000 0.314337 0.436904 -0.159266 42.124616 -143.957155 -0.000000 0.108335 0.210583 -0.399206
2.625000 -173.413544 616.483093 -0.000000 0.318780 0.430895 -0.159007 42.600711 -134.657213 -0.000000 0.104150 0.216224 -0.399035
2.630000 -174.418674 610.971352 -0.000000 0.323060 0.424656 -0.158770 44.550814 -123.880538 -0.000000 0.100129 0.222129 -0.398821
2.635000 -173.512645 605.909189 -0.000000 0.327571 0.418265 -0.158753 47.825303 -112.154314 -0.000000 0.096229 0.228291 -0.398692
2.640000 -172.616854 601.429465 -0.000000 0.331148 0.411731 -0.158101 52.620171 -99.841947 -0.000000 0.092517 0.234444 -0.398493
2.645000 -169.309905 598.652317 -0.000000 0.334770 0.404885 -0.157768 58.244219 -87.658985 -0.000000 0.089047 0.241032 -0.398395
2.650000 -165.203487 597.354663 -0.000000 0.338166 0.397984 -0.157414 64.648790 -75.981755 -0.000000 0.085748 0.247520 -0.398329
2.655000 -160.079700 597.721513 -0.000000 0.341269 0.391048 -0.157158 71.436196 -65.366150 -0.000000 0.082775 0.254262 -0.398264
2.660000 -154.178609 599.733584 -0.000000 0.344211 0.384067 -0.156913 78.250748 -56.337792 -0.000000 0.080080 0.261136 -0.398401
2.665000 -148.109719 603.224836 -0.000000 0.346707 0.377064 -0.156661 84.736813 -49.311835 -0.000000 0.077691 0.268129 -0.398421
2.670000 -141.208147 608.291055 -0.000000 0.349144 0.369777 -0.156541 90.407599 -44.748082 -0.000000 0.075651 0.275279 -0.398540
2.675000 -134.349287 614.588919 -0.000000 0.351695 0.362557 -0.156518 94.920392 -42.725226 -0.000000 0.073996 0.282552 -0.398640
2.680000 -127.222595 622.002681 -0.000000 0.353681 0.355113 -0.156565 97.899372 -43.324547 -0.000000 0.072715 0.290036 -0.398713
2.685000 -120.098681 630.254171 -0.000000 0.355454 0.347440 -0.156457 99.091053 -46.375635 -0.000000 0.071817 0.297490 -0.398870
2.690000 -112.915595 639.147599 -0.000000 0.356929 0.339841 -0.156379 98.313465 -51.585852 -0.000000 0.071265 0.305222 -0.398964
2.695000 -105.951844 648.464856 -0.000000 0.358138 0.332134 -0.156464 95.540849 -58.449417 -0.000000 0.071087 0.312877 -0.398956
2.700000 -99.443771 658.053201 -0.000000 0.359014 0.324616 -0.156525 90.904145 -66.369302 -0.000000 0.071297 0.320604 -0.399040
2.705000 -92.512341 667.961985 -0.000000 0.359642 0.316929 -0.156854 84.548121 -74.875476 -0.000000 0.071844 0.328376 -0.399124
2.710000 -85.903289 678.001626 -0.000000 0.360028 0.309371 -0.156925 76.859897 -83.303910 -0.000000 0.072720 0.336148 -0.399217
2.715000 -78.864578 688.179123 -0.000000 0.360024 0.301734 -0.156743 68.109958 -91.243321 -0.000000 0.073969 0.343955 -0.399350
2.720000 -71.436422 698.386236 -0.000000 0.359596 0.294032 -0.156966 58.680939 -98.266502 -0.000000 0.075519 0.351732 -0.399510
2.725000 -63.857949 708.521705 -0.000000 0.358834 0.286455 -0.156866 48.983314 -104.056556 -0.000000 0.077380 0.359527 -0.399607
2.730000 -55.537925 718.577021 -0.000000 0.358047 0.278909 -0.156199 39.264593 -108.489965 -0.000000 0.079505 0.367576 -0.399695
2.735000 -47.544274 728.397112 -0.000000 0.356406 0.271346 -0.156989 29.958111 -111.468385 -0.000000 0.081983 0.375068 -0.399775
2.740000 -39.261544 737.930539 -0.000000 0.354766 0.263865 -0.157103 21.188033 -113.109624 -0.000000 0.084609 0.382702 -0.399732
2.745000 -30.711679 747.026144 -0.000000 0.352670 0.256454 -0.157088 13.091652 -113.573832 -0.000000 0.087545 0.390198 -0.399748
2.750000 -21.735768 755.515071 -0.000000 0.350283 0.249127 -0.156991 5.673239 -113.067520 -0.000000 0.090722 0.397732 -0.399668
2.755000 -12.716733 763.185775 -0.000000 0.347551 0.241954 -0.156847 -1.028177 -111.817490 -0.000000 0.094244 0.405077 -0.399749
2.760000 -3.538731 769.802039 -0.000000 0.344445 0.234868 -0.156759 -7.027384 -110.082716 -0.000000 0.097923 0.412283 -0.399582
2.765000 5.912436 775.090146 -0.000000 0.341004 0.227958 -0.156527 -12.335189 -108.110299 -0.000000 0.101853 0.419421 -0.399513
2.770000 15.302817 778.776684 -0.000000 0.337249 0.221265 -0.156466 -16.947393 -106.094408 -0.000000 0.106094 0.426305 -0.399466
2.775000 24.438818 780.598018 -0.000000 0.333230 0.214789 -0.156338 -20.941959 -104.144056 -0.000000 0.110447 0.433029 -0.399329
2.780000 34.092277 780.264988 -0.000000 0.328883 0.208464 -0.156193 -24.569845 -102.261259 -0.000000 0.115298 0.439511 -0.398963
2.785000 43.370964 777.608448 -0.000000 0.324242 0.202383 -0.156000 -27.890071 -100.429240 -0.000000 0.120366 0.445665 -0.398731
2.790000 51.762511 772.595816 -0.000000 0.319354 0.196698 -0.155812 -31.021396 -98.580644 -0.000000 0.125505 0.451616 -0.398673
2.795000 59.624902 765.251979 -0.000000 0.314267 0.191208 -0.155665 -34.162595 -96.598104 -0.000000 0.130939 0.457274 -0.398628
2.800000 67.195115 755.631979 -0.000000 0.308902 0.185882 -0.155552 -37.438220 -94.366903 -0.000000 0.136635 0.462800 -0.398797
2.805000 72.561953 743.980326 -0.000000 0.303397 0.181069 -0.155383 -40.647084 -91.889917 -0.000000 0.142182 0.467839 -0.398776
2.810000 78.029649 730.127251 -0.000000 0.297656 0.176473 -0.155294 -44.085614 -88.928285 -0.000000 0.148173 0.472779 -0.398796
